<?xml version="1.0" encoding="iso-8859-1"?>
<!-- Uploaded to: SVG Repo, www.svgrepo.com, Generator: SVG Repo Mixer Tools -->
<!DOCTYPE svg PUBLIC "-//W3C//DTD SVG 1.1//EN" "http://www.w3.org/Graphics/SVG/1.1/DTD/svg11.dtd">
<svg fill="#000000" version="1.1" id="Capa_1" xmlns="http://www.w3.org/2000/svg" xmlns:xlink="http://www.w3.org/1999/xlink" 
	 width="800px" height="800px" viewBox="0 0 950 950" xml:space="preserve">
<g>
	<g>
		<path d="M617.886,0H330.438c-16.68,0-30.201,13.521-30.201,30.201V230.12h-58.655c-12.446,0-18.411,15.284-9.255,23.715
			l201.21,185.261h82.926l201.21-185.261c9.156-8.431,3.192-23.715-9.255-23.715h-58.655V31.878C649.764,14.272,635.491,0,617.886,0
			z"/>
		<path d="M63.606,930.979c0,10.506,8.516,19.021,19.021,19.021h784.747c10.505,0,19.021-8.516,19.021-19.021V748.336H63.606
			V930.979z M752.667,829.601c0-6.725,5.451-12.176,12.176-12.176h64.605c6.725,0,12.176,5.451,12.176,12.176v64.605
			c0,6.725-5.451,12.176-12.176,12.176h-64.605c-6.725,0-12.176-5.451-12.176-12.176V829.601z"/>
		<path d="M891.209,484.203c-2.825-11.644-13.25-19.841-25.231-19.841h-5.546H526.324h-18.651H482.03h-14.06h-25.643h-18.65H89.569
			h-5.546c-11.981,0-22.406,8.197-25.231,19.841L5.382,704.324c-2.317,9.549,4.916,18.747,14.742,18.747h43.481h822.788h43.481
			c9.826,0,17.059-9.198,14.742-18.747L891.209,484.203z"/>
	</g>
</g>
</svg>